<mxfile host="app.diagrams.net" agent="Mozilla/5.0 (Macintosh; Intel Mac OS X 10_15_7) AppleWebKit/537.36 (KHTML, like Gecko) Chrome/130.0.0.0 Safari/537.36" version="24.8.4" pages="16">
  <diagram name="6.1" id="Vbym0elUufHwr5s0n7qX">
    <mxGraphModel dx="1900" dy="1721" grid="1" gridSize="10" guides="1" tooltips="1" connect="1" arrows="1" fold="1" page="1" pageScale="1" pageWidth="850" pageHeight="1100" math="0" shadow="0">
      <root>
        <mxCell id="0" />
        <mxCell id="1" parent="0" />
        <mxCell id="WcrQv1agrF1TdCJ_gXjk-1" value="" style="shape=cylinder3;whiteSpace=wrap;html=1;boundedLbl=1;backgroundOutline=1;size=15;fillColor=#e1d5e7;strokeColor=#9673a6;" vertex="1" parent="1">
          <mxGeometry x="720" y="-130" width="60" height="80" as="geometry" />
        </mxCell>
        <mxCell id="WcrQv1agrF1TdCJ_gXjk-2" style="edgeStyle=orthogonalEdgeStyle;rounded=1;orthogonalLoop=1;jettySize=auto;html=1;curved=0;dashed=1;" edge="1" parent="1" source="WcrQv1agrF1TdCJ_gXjk-3" target="WcrQv1agrF1TdCJ_gXjk-16">
          <mxGeometry relative="1" as="geometry" />
        </mxCell>
        <mxCell id="WcrQv1agrF1TdCJ_gXjk-3" value="" style="strokeWidth=1;shadow=0;dashed=0;align=center;html=1;shape=mxgraph.mockup.containers.browserWindow;rSize=0;strokeColor=#666666;strokeColor2=#008cff;strokeColor3=#c4c4c4;mainText=,;recursiveResize=0;" vertex="1" parent="1">
          <mxGeometry x="-60" y="-140" width="370" height="190" as="geometry" />
        </mxCell>
        <mxCell id="WcrQv1agrF1TdCJ_gXjk-4" value="Page 1" style="strokeWidth=1;shadow=0;dashed=0;align=center;html=1;shape=mxgraph.mockup.containers.anchor;fontSize=17;fontColor=#666666;align=left;whiteSpace=wrap;" vertex="1" parent="WcrQv1agrF1TdCJ_gXjk-3">
          <mxGeometry x="60" y="12" width="110" height="26" as="geometry" />
        </mxCell>
        <mxCell id="WcrQv1agrF1TdCJ_gXjk-5" value="https://example.com/catalog" style="strokeWidth=1;shadow=0;dashed=0;align=center;html=1;shape=mxgraph.mockup.containers.anchor;rSize=0;fontSize=17;fontColor=#666666;align=left;" vertex="1" parent="WcrQv1agrF1TdCJ_gXjk-3">
          <mxGeometry x="130" y="60" width="250" height="26" as="geometry" />
        </mxCell>
        <mxCell id="WcrQv1agrF1TdCJ_gXjk-6" value="{&lt;div&gt;&amp;nbsp; &quot;products&quot;: [&lt;/div&gt;&lt;div&gt;&amp;nbsp; &amp;nbsp; {&quot;id&quot;: 1, ...},&amp;nbsp;&lt;/div&gt;&lt;div&gt;&amp;nbsp; &amp;nbsp; {&quot;id&quot;: 2, ...},&lt;/div&gt;&lt;div&gt;&amp;nbsp; &amp;nbsp; ...&lt;/div&gt;&lt;div&gt;&amp;nbsp; &amp;nbsp; {&quot;id&quot;: 50, ...}&lt;/div&gt;&lt;div&gt;&amp;nbsp; ]&lt;/div&gt;&lt;div&gt;}&lt;/div&gt;" style="text;html=1;align=left;verticalAlign=middle;whiteSpace=wrap;rounded=0;strokeColor=#666666;dashed=1;spacing=10;fillColor=#f5f5f5;fontColor=#333333;" vertex="1" parent="1">
          <mxGeometry x="370" y="-45" width="100" height="130" as="geometry" />
        </mxCell>
        <mxCell id="WcrQv1agrF1TdCJ_gXjk-7" value="{&lt;div&gt;&amp;nbsp; &quot;products&quot;: [&lt;/div&gt;&lt;div&gt;&amp;nbsp; &amp;nbsp; {&quot;id&quot;: 51, ...},&amp;nbsp;&lt;/div&gt;&lt;div&gt;&amp;nbsp; &amp;nbsp; {&quot;id&quot;: 52, ...},&lt;/div&gt;&lt;div&gt;&amp;nbsp; &amp;nbsp; ...&lt;/div&gt;&lt;div&gt;&amp;nbsp; &amp;nbsp; {&quot;id&quot;: 100, ...},&lt;/div&gt;&lt;div&gt;&amp;nbsp; ]&lt;/div&gt;&lt;div&gt;}&lt;/div&gt;" style="text;html=1;align=left;verticalAlign=middle;whiteSpace=wrap;rounded=0;strokeColor=#666666;dashed=1;spacing=10;fillColor=#f5f5f5;fontColor=#333333;" vertex="1" parent="1">
          <mxGeometry x="530" y="10" width="110" height="130" as="geometry" />
        </mxCell>
        <mxCell id="WcrQv1agrF1TdCJ_gXjk-8" value="{&lt;div&gt;&amp;nbsp; &quot;products&quot;: [&lt;/div&gt;&lt;div&gt;&amp;nbsp; &amp;nbsp; {&quot;id&quot;: 101, ...},&amp;nbsp;&lt;/div&gt;&lt;div&gt;&amp;nbsp; &amp;nbsp; {&quot;id&quot;: 102, ...},&lt;/div&gt;&lt;div&gt;&amp;nbsp; &amp;nbsp; ...&lt;/div&gt;&lt;div&gt;&amp;nbsp; &amp;nbsp; {&quot;id&quot;: 150, ...},&lt;/div&gt;&lt;div&gt;&amp;nbsp; ]&lt;/div&gt;&lt;div&gt;}&lt;/div&gt;" style="text;html=1;align=left;verticalAlign=middle;whiteSpace=wrap;rounded=0;strokeColor=#666666;dashed=1;spacing=10;fillColor=#f5f5f5;fontColor=#333333;" vertex="1" parent="1">
          <mxGeometry x="690" width="110" height="130" as="geometry" />
        </mxCell>
        <mxCell id="WcrQv1agrF1TdCJ_gXjk-9" value="Page 1" style="text;html=1;align=center;verticalAlign=middle;whiteSpace=wrap;rounded=0;fillColor=#fff2cc;strokeColor=#d6b656;" vertex="1" parent="1">
          <mxGeometry x="370" y="85" width="100" height="30" as="geometry" />
        </mxCell>
        <mxCell id="WcrQv1agrF1TdCJ_gXjk-10" value="Page 3" style="text;html=1;align=center;verticalAlign=middle;whiteSpace=wrap;rounded=0;fillColor=#fff2cc;strokeColor=#d6b656;" vertex="1" parent="1">
          <mxGeometry x="690" y="130" width="110" height="30" as="geometry" />
        </mxCell>
        <mxCell id="WcrQv1agrF1TdCJ_gXjk-11" value="Page 2" style="text;html=1;align=center;verticalAlign=middle;whiteSpace=wrap;rounded=0;fillColor=#fff2cc;strokeColor=#d6b656;" vertex="1" parent="1">
          <mxGeometry x="530" y="140" width="110" height="30" as="geometry" />
        </mxCell>
        <mxCell id="WcrQv1agrF1TdCJ_gXjk-12" style="edgeStyle=orthogonalEdgeStyle;rounded=1;orthogonalLoop=1;jettySize=auto;html=1;curved=0;dashed=1;" edge="1" parent="1" source="WcrQv1agrF1TdCJ_gXjk-14" target="WcrQv1agrF1TdCJ_gXjk-6">
          <mxGeometry relative="1" as="geometry" />
        </mxCell>
        <mxCell id="WcrQv1agrF1TdCJ_gXjk-13" style="edgeStyle=orthogonalEdgeStyle;rounded=1;orthogonalLoop=1;jettySize=auto;html=1;entryX=0.5;entryY=0;entryDx=0;entryDy=0;curved=0;dashed=1;" edge="1" parent="1" source="WcrQv1agrF1TdCJ_gXjk-14" target="WcrQv1agrF1TdCJ_gXjk-8">
          <mxGeometry relative="1" as="geometry">
            <Array as="points">
              <mxPoint x="600" y="-20" />
              <mxPoint x="745" y="-20" />
            </Array>
          </mxGeometry>
        </mxCell>
        <mxCell id="WcrQv1agrF1TdCJ_gXjk-14" value="E-commerce API" style="rounded=0;whiteSpace=wrap;html=1;fillColor=#dae8fc;strokeColor=#6c8ebf;" vertex="1" parent="1">
          <mxGeometry x="540" y="-110" width="120" height="60" as="geometry" />
        </mxCell>
        <mxCell id="WcrQv1agrF1TdCJ_gXjk-15" style="edgeStyle=orthogonalEdgeStyle;rounded=1;orthogonalLoop=1;jettySize=auto;html=1;entryX=0.5;entryY=0;entryDx=0;entryDy=0;dashed=1;curved=0;" edge="1" parent="1" source="WcrQv1agrF1TdCJ_gXjk-16" target="WcrQv1agrF1TdCJ_gXjk-14">
          <mxGeometry relative="1" as="geometry">
            <Array as="points">
              <mxPoint x="600" y="-135" />
            </Array>
          </mxGeometry>
        </mxCell>
        <mxCell id="WcrQv1agrF1TdCJ_gXjk-16" value="GET /products" style="text;html=1;align=center;verticalAlign=middle;whiteSpace=wrap;rounded=0;strokeColor=#d6b656;dashed=1;fillColor=#fff2cc;" vertex="1" parent="1">
          <mxGeometry x="380" y="-150" width="100" height="30" as="geometry" />
        </mxCell>
        <mxCell id="WcrQv1agrF1TdCJ_gXjk-17" style="edgeStyle=orthogonalEdgeStyle;rounded=1;orthogonalLoop=1;jettySize=auto;html=1;entryX=0.37;entryY=-0.018;entryDx=0;entryDy=0;entryPerimeter=0;curved=0;dashed=1;" edge="1" parent="1" source="WcrQv1agrF1TdCJ_gXjk-14" target="WcrQv1agrF1TdCJ_gXjk-7">
          <mxGeometry relative="1" as="geometry" />
        </mxCell>
        <mxCell id="WcrQv1agrF1TdCJ_gXjk-18" value="" style="shape=flexArrow;endArrow=classic;html=1;rounded=0;fillColor=#e1d5e7;strokeColor=#9673a6;" edge="1" parent="1">
          <mxGeometry width="50" height="50" relative="1" as="geometry">
            <mxPoint x="701" y="-90.44999999999999" as="sourcePoint" />
            <mxPoint x="671" y="-90.44999999999999" as="targetPoint" />
          </mxGeometry>
        </mxCell>
        <mxCell id="WcrQv1agrF1TdCJ_gXjk-19" value="" style="shape=flexArrow;endArrow=classic;html=1;rounded=0;fillColor=#e1d5e7;strokeColor=#9673a6;" edge="1" parent="1">
          <mxGeometry width="50" height="50" relative="1" as="geometry">
            <mxPoint x="350" y="30.000000000000014" as="sourcePoint" />
            <mxPoint x="320" y="30.000000000000014" as="targetPoint" />
          </mxGeometry>
        </mxCell>
        <mxCell id="WcrQv1agrF1TdCJ_gXjk-20" value="" style="shape=flexArrow;endArrow=classic;html=1;rounded=0;fillColor=#e1d5e7;strokeColor=#9673a6;" edge="1" parent="1">
          <mxGeometry width="50" height="50" relative="1" as="geometry">
            <mxPoint x="510" y="64.55000000000001" as="sourcePoint" />
            <mxPoint x="480" y="64.55000000000001" as="targetPoint" />
          </mxGeometry>
        </mxCell>
        <mxCell id="WcrQv1agrF1TdCJ_gXjk-21" value="" style="shape=flexArrow;endArrow=classic;html=1;rounded=0;fillColor=#e1d5e7;strokeColor=#9673a6;" edge="1" parent="1">
          <mxGeometry width="50" height="50" relative="1" as="geometry">
            <mxPoint x="680" y="74.55000000000001" as="sourcePoint" />
            <mxPoint x="650" y="74.55000000000001" as="targetPoint" />
          </mxGeometry>
        </mxCell>
      </root>
    </mxGraphModel>
  </diagram>
  <diagram id="leBx_vtnTromEDHSYnFH" name="6.2">
    <mxGraphModel dx="1050" dy="621" grid="1" gridSize="10" guides="1" tooltips="1" connect="1" arrows="1" fold="1" page="1" pageScale="1" pageWidth="850" pageHeight="1100" math="0" shadow="0">
      <root>
        <mxCell id="0" />
        <mxCell id="1" parent="0" />
      </root>
    </mxGraphModel>
  </diagram>
  <diagram id="5A4qi0EKrNgmt9QO7Owc" name="6.3">
    <mxGraphModel dx="1050" dy="621" grid="1" gridSize="10" guides="1" tooltips="1" connect="1" arrows="1" fold="1" page="1" pageScale="1" pageWidth="850" pageHeight="1100" math="0" shadow="0">
      <root>
        <mxCell id="0" />
        <mxCell id="1" parent="0" />
      </root>
    </mxGraphModel>
  </diagram>
  <diagram id="zpgNx2O3xK3yQkL56bRw" name="6.4">
    <mxGraphModel dx="1050" dy="621" grid="1" gridSize="10" guides="1" tooltips="1" connect="1" arrows="1" fold="1" page="1" pageScale="1" pageWidth="850" pageHeight="1100" math="0" shadow="0">
      <root>
        <mxCell id="0" />
        <mxCell id="1" parent="0" />
      </root>
    </mxGraphModel>
  </diagram>
  <diagram id="ROPuV0hzkZrFENrw3a_o" name="6.5">
    <mxGraphModel dx="1050" dy="621" grid="1" gridSize="10" guides="1" tooltips="1" connect="1" arrows="1" fold="1" page="1" pageScale="1" pageWidth="850" pageHeight="1100" math="0" shadow="0">
      <root>
        <mxCell id="0" />
        <mxCell id="1" parent="0" />
      </root>
    </mxGraphModel>
  </diagram>
  <diagram id="00pzIcAwIEPlKAQuJ0pC" name="6.6">
    <mxGraphModel dx="1050" dy="621" grid="1" gridSize="10" guides="1" tooltips="1" connect="1" arrows="1" fold="1" page="1" pageScale="1" pageWidth="850" pageHeight="1100" math="0" shadow="0">
      <root>
        <mxCell id="0" />
        <mxCell id="1" parent="0" />
      </root>
    </mxGraphModel>
  </diagram>
  <diagram id="3rW8JT15_6Kw59veCtOY" name="6.7">
    <mxGraphModel dx="1050" dy="621" grid="1" gridSize="10" guides="1" tooltips="1" connect="1" arrows="1" fold="1" page="1" pageScale="1" pageWidth="850" pageHeight="1100" math="0" shadow="0">
      <root>
        <mxCell id="0" />
        <mxCell id="1" parent="0" />
      </root>
    </mxGraphModel>
  </diagram>
  <diagram id="7phms55aTa507HKamCs2" name="6.8">
    <mxGraphModel dx="1050" dy="621" grid="1" gridSize="10" guides="1" tooltips="1" connect="1" arrows="1" fold="1" page="1" pageScale="1" pageWidth="850" pageHeight="1100" math="0" shadow="0">
      <root>
        <mxCell id="0" />
        <mxCell id="1" parent="0" />
      </root>
    </mxGraphModel>
  </diagram>
  <diagram id="Rz1jy0FxTfi2CSnkRQl-" name="6.9">
    <mxGraphModel dx="1050" dy="621" grid="1" gridSize="10" guides="1" tooltips="1" connect="1" arrows="1" fold="1" page="1" pageScale="1" pageWidth="850" pageHeight="1100" math="0" shadow="0">
      <root>
        <mxCell id="0" />
        <mxCell id="1" parent="0" />
      </root>
    </mxGraphModel>
  </diagram>
  <diagram id="91EAJW6RfQIRjYURCQRe" name="6.10">
    <mxGraphModel dx="1050" dy="621" grid="1" gridSize="10" guides="1" tooltips="1" connect="1" arrows="1" fold="1" page="1" pageScale="1" pageWidth="850" pageHeight="1100" math="0" shadow="0">
      <root>
        <mxCell id="0" />
        <mxCell id="1" parent="0" />
      </root>
    </mxGraphModel>
  </diagram>
  <diagram id="8YqyUCWS7yPaRmSITvMy" name="6.11">
    <mxGraphModel dx="1050" dy="621" grid="1" gridSize="10" guides="1" tooltips="1" connect="1" arrows="1" fold="1" page="1" pageScale="1" pageWidth="850" pageHeight="1100" math="0" shadow="0">
      <root>
        <mxCell id="0" />
        <mxCell id="1" parent="0" />
      </root>
    </mxGraphModel>
  </diagram>
  <diagram id="0ehFL1Ak-Gc1wjYfrz6c" name="6.12">
    <mxGraphModel dx="1050" dy="621" grid="1" gridSize="10" guides="1" tooltips="1" connect="1" arrows="1" fold="1" page="1" pageScale="1" pageWidth="850" pageHeight="1100" math="0" shadow="0">
      <root>
        <mxCell id="0" />
        <mxCell id="1" parent="0" />
      </root>
    </mxGraphModel>
  </diagram>
  <diagram id="qwKGy15ZUyQy6Pq-JW1W" name="6.13">
    <mxGraphModel dx="1050" dy="621" grid="1" gridSize="10" guides="1" tooltips="1" connect="1" arrows="1" fold="1" page="1" pageScale="1" pageWidth="850" pageHeight="1100" math="0" shadow="0">
      <root>
        <mxCell id="0" />
        <mxCell id="1" parent="0" />
      </root>
    </mxGraphModel>
  </diagram>
  <diagram id="Y6esshYnYhQDQhPy05O0" name="6.14">
    <mxGraphModel dx="1050" dy="621" grid="1" gridSize="10" guides="1" tooltips="1" connect="1" arrows="1" fold="1" page="1" pageScale="1" pageWidth="850" pageHeight="1100" math="0" shadow="0">
      <root>
        <mxCell id="0" />
        <mxCell id="1" parent="0" />
      </root>
    </mxGraphModel>
  </diagram>
  <diagram id="Z_xMhCQX5rnz8k3LuhCZ" name="6.15">
    <mxGraphModel dx="1050" dy="621" grid="1" gridSize="10" guides="1" tooltips="1" connect="1" arrows="1" fold="1" page="1" pageScale="1" pageWidth="850" pageHeight="1100" math="0" shadow="0">
      <root>
        <mxCell id="0" />
        <mxCell id="1" parent="0" />
      </root>
    </mxGraphModel>
  </diagram>
  <diagram id="Js_mUJpj5F24vP3KW104" name="6.16">
    <mxGraphModel dx="1050" dy="621" grid="1" gridSize="10" guides="1" tooltips="1" connect="1" arrows="1" fold="1" page="1" pageScale="1" pageWidth="850" pageHeight="1100" math="0" shadow="0">
      <root>
        <mxCell id="0" />
        <mxCell id="1" parent="0" />
      </root>
    </mxGraphModel>
  </diagram>
</mxfile>
